<?xml version="1.0" encoding="UTF-8"?>
<!-- Generator: Adobe Illustrator 16.0.0, SVG Export Plug-In . SVG Version: 6.00 Build 0)  -->
<!DOCTYPE svg PUBLIC "-//W3C//DTD SVG 1.1//EN" "http://www.w3.org/Graphics/SVG/1.1/DTD/svg11.dtd">
<svg version="1.1" id="Capa_1" xmlns="http://www.w3.org/2000/svg" xmlns:xlink="http://www.w3.org/1999/xlink" x="0px" y="0px" width="353.566px" height="56.843px" viewBox="0 0 353.566 56.843" enable-background="new 0 0 353.566 56.843" xml:space="preserve">
<g>
	<g>
		<g>
			<path fill="#FFFFFF" d="M49.212,17.009l-5.66,0.03L43.478,5.421l5.363-0.033c2.329-0.012,3.509,1.186,3.521,3.125     c0.005,0.973-0.408,1.764-1.126,2.285c0.989,0.516,1.602,1.449,1.602,2.774C52.859,15.645,51.453,16.995,49.212,17.009      M45.708,7.415l0.01,2.562l3.155-0.021c0.749-0.002,1.352-0.524,1.346-1.294c-0.006-0.768-0.528-1.271-1.363-1.268L45.708,7.415z      M48.833,11.983l-3.105,0.016l0.024,3.002l3.144-0.018c0.854-0.007,1.693-0.348,1.686-1.486     C50.574,12.53,49.949,11.978,48.833,11.983"/>
			<path fill="#FFFFFF" d="M61.524,16.931l-2.116,0.021v-0.792c-0.535,0.623-1.286,0.999-2.188,1     c-2.044,0.016-3.409-1.498-3.424-3.76l-0.028-5.044l2.209-0.015l0.029,5.045c0,0.48,0.176,1.689,1.62,1.683     c0.984-0.008,1.67-0.75,1.661-1.704l-0.027-5.041l2.208-0.015L61.524,16.931z"/>
			<path fill="#FFFFFF" d="M64.916,13.468c0.298,1.051,1.138,1.697,2.176,1.695c0.733-0.004,1.449-0.327,1.819-1.018l2.358-0.015     c-0.496,1.763-2.008,2.963-4.155,2.973c-2.424,0.013-4.43-1.981-4.444-4.478c-0.016-2.502,1.969-4.551,4.388-4.568     c2.556-0.009,4.673,1.951,4.374,5.37L64.916,13.468z M69.224,11.632c-0.271-1.005-1.111-1.633-2.167-1.633     c-1.004,0.01-1.807,0.65-2.118,1.655L69.224,11.632z"/>
			<path fill="#FFFFFF" d="M80.366,16.823l-2.213,0.014l-0.032-5.039c-0.007-0.502-0.158-1.708-1.617-1.7     c-0.988,0.009-1.674,0.743-1.664,1.718l0.023,5.041l-2.207,0.018l-0.042-8.629l2.1-0.014l0.013,0.838     c0.545-0.654,1.294-1.062,2.219-1.063c2.028-0.014,3.372,1.503,3.389,3.778L80.366,16.823z"/>
			<path fill="#FFFFFF" d="M90.15,12.464c0.012,2.582-1.936,4.517-4.328,4.534c-2.396,0.011-4.35-1.903-4.364-4.483     c-0.017-2.575,1.917-4.551,4.308-4.563C88.164,7.937,90.134,9.885,90.15,12.464 M87.921,12.494     c-0.006-1.49-0.967-2.521-2.139-2.517c-1.175,0.005-2.119,1.047-2.117,2.546c0.012,1.452,0.975,2.453,2.145,2.444     C86.984,14.964,87.93,13.953,87.921,12.494"/>
			<path fill="#FFFFFF" d="M94.851,16.942c-2.197,0.011-3.834-1.137-4.105-2.989l2.244-0.019c0.312,0.742,1.194,1.001,1.849,0.998     c0.888-0.007,1.554-0.275,1.552-0.779c-0.004-0.489-0.307-0.686-1.813-0.91c-1.545-0.23-3.604-0.636-3.617-2.563     c-0.012-1.354,1.168-2.768,3.666-2.785c1.974-0.006,3.456,1.055,3.753,2.676l-2.296,0.014c-0.133-0.396-0.625-0.71-1.443-0.71     c-1.018,0.005-1.44,0.378-1.43,0.692c0,0.457,0.632,0.6,1.703,0.762c2.147,0.343,3.689,0.801,3.704,2.678     C98.621,15.716,97.061,16.928,94.851,16.942"/>
			<path fill="#FFFFFF" d="M45.787,30.288l-0.772,2.331l-2.347,0.019l3.984-11.65l2.801-0.018l4.119,11.604l-2.342,0.009     l-0.811-2.321L45.787,30.288z M48.064,23.44l-1.604,4.781l3.248-0.017L48.064,23.44z"/>
			<path fill="#FFFFFF" d="M56.621,22.988l-2.217,0.017l-0.011-2.061l2.212-0.014L56.621,22.988z M56.67,32.548l-2.21,0.023     l-0.051-8.628l2.211-0.013L56.67,32.548z"/>
			<path fill="#FFFFFF" d="M66.096,27.893l-2.219,0.011v-0.436c-0.003-0.498-0.16-1.705-1.617-1.698     c-0.987,0.013-1.673,0.747-1.665,1.722l0.027,5.037l-2.21,0.013l-0.054-8.622l2.115-0.013l0.003,0.839     c0.549-0.656,1.298-1.068,2.219-1.071c2.025-0.015,3.38,1.502,3.389,3.783L66.096,27.893z"/>
			<path fill="#FFFFFF" d="M68.99,29.03c0.288,1.057,1.14,1.703,2.172,1.695c0.736-0.003,1.455-0.326,1.819-1.014l2.36-0.014     c-0.493,1.762-2.006,2.959-4.153,2.973c-2.422,0.011-4.43-1.983-4.441-4.481c-0.018-2.494,1.966-4.553,4.391-4.563     c2.544-0.02,4.674,1.947,4.373,5.368L68.99,29.03z M73.302,27.198c-0.273-1.005-1.112-1.638-2.165-1.627     c-1.002,0.003-1.808,0.647-2.128,1.65L73.302,27.198z"/>
			<path fill="#FFFFFF" d="M80.235,32.618c-2.192,0.006-3.821-1.133-4.102-2.994l2.24-0.01c0.313,0.732,1.2,0.998,1.851,0.992     c0.889-0.006,1.559-0.277,1.553-0.777c0-0.489-0.305-0.689-1.813-0.913c-1.54-0.225-3.606-0.632-3.613-2.56     c-0.013-1.355,1.172-2.769,3.664-2.784c1.978-0.011,3.454,1.056,3.746,2.679l-2.288,0.009c-0.137-0.395-0.627-0.712-1.44-0.708     c-1.032,0.005-1.446,0.377-1.438,0.693c0,0.45,0.636,0.601,1.715,0.762c2.144,0.339,3.685,0.799,3.693,2.675     C84.014,31.392,82.444,32.604,80.235,32.618"/>
			<path fill="#FFFFFF" d="M48.841,48.39c-3.162,0.018-5.644-2.627-5.657-6.031c-0.028-3.403,2.424-6.076,5.588-6.094     c2.628-0.019,4.579,1.464,5.318,3.836l-2.401,0.014c-0.521-1.052-1.565-1.829-2.91-1.822c-1.902,0.011-3.398,1.86-3.386,4.055     c0.012,2.213,1.524,4.041,3.44,4.027c1.316,0,2.368-0.832,2.885-1.883l2.372-0.019C53.374,46.84,51.416,48.374,48.841,48.39"/>
			<path fill="#FFFFFF" d="M57.39,38.574l-2.208,0.015L55.17,36.53l2.21-0.016L57.39,38.574z M57.449,48.138l-2.21,0.014     l-0.052-8.627l2.209-0.01L57.449,48.138z"/>
			<path fill="#FFFFFF" d="M66.744,48.079l-2.111,0.018v-0.788c-0.539,0.624-1.295,0.993-2.191,1.001     c-2.045,0.013-3.41-1.503-3.421-3.764l-0.028-5.047l2.209-0.007l0.027,5.035c0.004,0.488,0.175,1.695,1.623,1.687     c0.987-0.002,1.664-0.749,1.658-1.701l-0.025-5.043l2.206-0.013L66.744,48.079z"/>
			<path fill="#FFFFFF" d="M76.775,48.023l-2.105,0.017l-0.006-0.926c-0.684,0.711-1.594,1.117-2.641,1.123     c-2.249,0.011-4.119-1.92-4.128-4.462c-0.018-2.563,1.822-4.52,4.07-4.53c1.009-0.011,1.88,0.352,2.552,0.989l-0.021-4.657     l2.206-0.012L76.775,48.023z M72.319,41.287c-1.229,0.003-2.208,1.077-2.2,2.489c0.011,1.372,1.001,2.423,2.224,2.419     c1.229-0.008,2.207-1.107,2.198-2.447C74.533,42.38,73.539,41.272,72.319,41.287"/>
			<path fill="#FFFFFF" d="M86.86,47.968l-2.115,0.007l-0.006-0.918c-0.665,0.704-1.581,1.113-2.643,1.124     c-2.243,0.01-4.11-1.921-4.119-4.467c-0.021-2.563,1.828-4.521,4.077-4.531c1.053-0.004,1.972,0.396,2.648,1.093l-0.006-0.916     l2.112-0.018L86.86,47.968z M82.394,41.226c-1.223,0.008-2.205,1.086-2.201,2.49c0.012,1.372,1.008,2.423,2.229,2.416     c1.227-0.005,2.214-1.101,2.2-2.441C84.611,42.316,83.615,41.22,82.394,41.226"/>
			<path fill="#FFFFFF" d="M96.916,47.909l-2.098,0.01L94.809,47c-0.685,0.706-1.59,1.109-2.64,1.118     c-2.243,0.012-4.119-1.919-4.132-4.461c-0.015-2.566,1.832-4.519,4.076-4.529c1.004-0.01,1.878,0.356,2.552,0.986L94.64,35.46     l2.209-0.012L96.916,47.909z M92.461,41.164c-1.224,0.009-2.201,1.087-2.194,2.496c0.005,1.371,1.001,2.421,2.225,2.411     c1.223-0.004,2.197-1.098,2.197-2.439C94.674,42.262,93.687,41.159,92.461,41.164"/>
			<path fill="#FFFFFF" d="M17.648,12.254c-0.116,0-0.198,0.086-0.189,0.202c0,0.11,0.093,0.208,0.189,0.208     c0.109,0,0.215-0.098,0.215-0.208C17.863,12.34,17.757,12.254,17.648,12.254"/>
			<path fill="#FFFFFF" d="M28.03,15.358h-0.036c-1.073-0.035-2.086-0.423-3.081-0.783c-0.405-0.146-0.801-0.306-1.223-0.444     c-0.814-0.242-1.533-0.381-2.209-0.396c-0.181-0.011-0.34-0.022-0.516-0.022c-0.458,0-1.078,0.051-1.49,0.453     c-0.104-0.506-0.255-1.076-0.452-1.616c-0.21-0.505-0.516-1.107-1.057-1.255c-0.087-0.033-0.178-0.04-0.277-0.04     c-0.522,0-0.928,0.481-1.129,0.772l-0.092,0.119c-0.235,0.352-0.337,0.519-0.317,0.676c0.054,0.16,0.243,0.276,0.67,0.531     c0.195,0.104,0.222,0.382,0.252,0.582v0.019c0.051,0.305,0.071,0.604,0.071,0.89c-0.637-0.649-1.567-0.877-2.438-1.024     c-0.231-0.045-0.465-0.076-0.722-0.076c-0.981,0-1.938,0.386-2.563,0.65c-0.357,0.164-0.734,0.34-1.079,0.522     c-0.671,0.316-1.375,0.668-2.088,0.872c-0.233,0.075-0.457,0.135-0.734,0.183H7.497H7.472l-0.021,0.022     c-0.104,0.019-0.282,0.069-0.321,0.241c-0.042,0.175-0.018,0.286,0.218,0.456c0.531,0.299,1.18,0.445,1.961,0.445     c0.172-0.014,0.333-0.014,0.521-0.034c0.228-0.007,0.475-0.044,0.71-0.073c0.388-0.039,0.743-0.105,1.105-0.105     c0.255,0,0.461,0.021,0.666,0.076c0.588,0.137,0.94,0.701,1.235,1.21c0.091,0.138,0.155,0.252,0.241,0.37v0.01     c0.152,0.21,0.379,0.57,0.373,0.833c-0.021,0.268-0.373,0.475-0.645,0.645c-0.068,0.043-0.119,0.087-0.182,0.113     c-0.071,0.059-0.173,0.121-0.274,0.197c-0.587,0.381-1.396,0.882-1.302,1.584c0.043,0.331,0.339,0.606,0.674,0.648     c0.041,0.008,0.064,0.008,0.11,0.008c0.24,0,0.461-0.122,0.67-0.223c0.087-0.054,0.185-0.111,0.271-0.131     c0.282-0.129,0.549-0.18,0.843-0.18c0.476-0.008,0.941,0.145,1.358,0.465c0.128,0.108,0.257,0.23,0.38,0.346     c0.133,0.14,0.281,0.276,0.426,0.383c0.125,0.075,0.354,0.172,0.549,0.172c0.188,0,0.318-0.097,0.36-0.271     c0.06-0.332,0.06-0.689,0.06-1.043c-0.018-0.273-0.018-0.566,0.011-0.83c0.022-0.172,0.09-0.521,0.298-0.627     c0.062-0.031,0.152-0.044,0.257-0.044c0.101,0,0.223,0.026,0.333,0.026c0.15,0.032,0.314,0.048,0.444,0.032     c0.62-0.088,1.13-0.597,1.386-1.374c0.102-0.265,0.246-0.371,0.506-0.433c0.315-0.087,0.507-0.341,0.709-0.582     c0.027-0.064,0.09-0.128,0.133-0.181c0.393-0.461,0.851-0.685,1.533-0.685c0.127,0,0.257,0.016,0.398,0.021     c0.139,0.009,0.289,0.031,0.424,0.044c0.35,0.032,0.701,0.067,1.041,0.067c0.388,0,0.72-0.047,1.025-0.154     c0.807-0.272,1.527-0.809,2.172-1.328l0.078-0.083c0.191-0.152,0.235-0.246,0.191-0.42C28.343,15.4,28.111,15.358,28.03,15.358      M14.119,17.841c-0.162-0.271-0.319-0.539-0.533-0.784c-0.473-0.571-1.09-0.813-2.04-0.813c-0.38,0-0.78,0.063-1.178,0.101     c-0.404,0.032-0.804,0.074-1.187,0.092c-0.214,0-0.38-0.018-0.549-0.028c0.66-0.226,1.301-0.546,1.938-0.849     c0.66-0.346,1.355-0.666,2.075-0.883c0.447-0.166,0.9-0.225,1.387-0.225c0.874-0.012,1.678,0.225,2.327,0.633     c0.551,0.356,0.714,0.738,0.53,1.276c-0.182,0.561-0.53,1.129-0.996,1.668c-0.036,0.034-0.057,0.074-0.106,0.123     c-0.189,0.245-0.547,0.646-0.829,0.646c-0.095,0-0.17-0.027-0.243-0.105C14.484,18.437,14.294,18.147,14.119,17.841      M19.591,18.611c-0.072,0.46-0.26,0.863-0.545,1.129c-0.257,0.229-0.528,0.287-0.91,0.297h-0.191c-0.065,0-0.131-0.01-0.21-0.01     c-0.229,0-0.422,0.081-0.568,0.238c-0.453,0.458-0.447,1.449-0.427,2.1v0.228l-0.032-0.055c-0.576-0.511-1.105-1.02-1.92-1.127     c-0.128-0.015-0.243-0.015-0.385-0.015c-0.237,0-0.499,0.02-0.756,0.084c-0.222,0.057-0.413,0.147-0.62,0.234     c-0.086,0.042-0.144,0.085-0.23,0.122c-0.109,0.034-0.238,0.073-0.301,0.073c-0.018,0-0.036,0-0.064-0.003V21.86     c0.094-0.277,0.371-0.464,0.602-0.636l0.068-0.027c0.589-0.415,1.14-0.816,1.7-1.246c0.985-0.782,2.088-1.776,2.64-3.095     c0.316-0.741,0.438-1.603,0.373-2.479v-0.041c-0.036-0.36-0.057-0.741-0.204-1.072c-0.118-0.274-0.343-0.399-0.554-0.523     c-0.063-0.036-0.077-0.051-0.125-0.076c0.107-0.2,0.382-0.73,0.73-0.73c0.127,0,0.26,0.093,0.384,0.249     c0.382,0.541,0.584,1.189,0.744,1.771c0.032,0.106,0.054,0.212,0.086,0.326C19.214,15.4,19.747,17.267,19.591,18.611      M26.455,16.437c-0.547,0.313-1.03,0.461-1.509,0.474h-0.042c-0.311-0.013-0.617-0.054-0.912-0.09     c-0.248-0.025-0.515-0.056-0.777-0.071c-0.634-0.026-1.141,0.074-1.547,0.334c-0.266,0.151-0.459,0.385-0.65,0.635     c-0.116,0.154-0.268,0.321-0.436,0.47c-0.063,0.04-0.122,0.084-0.185,0.084c-0.065,0-0.081-0.054-0.065-0.149v-0.074     c-0.031-0.242-0.063-0.48-0.096-0.717l-0.022-0.124c-0.051-0.412-0.114-0.835-0.216-1.261c-0.027-0.084-0.048-0.168-0.092-0.238     c-0.111-0.385-0.247-0.846,0.025-1.088c0.181-0.146,0.486-0.168,0.672-0.191c0,0,0.235-0.021,0.49-0.021h0.082     c0.254,0,0.551,0.021,0.826,0.049c0.506,0.067,1.04,0.191,1.688,0.396c0.353,0.117,0.698,0.247,1.047,0.378     c0.778,0.295,1.593,0.577,2.44,0.715C26.903,16.148,26.667,16.307,26.455,16.437"/>
			<path fill="#FFFFFF" d="M35.215,22.629c-0.247-1.482-0.631-2.94-1.11-4.368c-0.502-1.363-1.125-2.678-1.865-3.925     c-0.558-0.964-1.206-1.892-1.922-2.76c-0.913-1.108-1.951-2.112-3.101-2.976c-1.108-0.856-2.305-1.572-3.612-2.133     c-1.276-0.529-2.64-0.887-4.014-1.069c-1.414-0.176-2.852-0.157-4.247,0.075c-1.363,0.225-2.707,0.66-3.976,1.226     c-1.26,0.603-2.466,1.361-3.544,2.236C6.721,9.849,5.717,10.88,4.84,12.026c-0.863,1.106-1.627,2.296-2.257,3.557     c-0.654,1.297-1.188,2.678-1.599,4.084c-0.415,1.454-0.701,2.978-0.847,4.496c-0.164,1.583-0.18,3.182-0.061,4.766     c0.131,1.531,0.397,3.044,0.788,4.535c0.386,1.426,0.9,2.822,1.53,4.14c0.617,1.29,1.339,2.504,2.18,3.63     c0.953,1.283,3.351,3.527,3.369,3.527c2.84,2.306,6.263,3.646,9.959,3.624c1.41-0.011,2.813-0.215,4.17-0.624     c1.33-0.382,2.604-0.972,3.781-1.699c1.218-0.737,2.324-1.634,3.325-2.652c0.994-0.995,1.878-2.119,2.638-3.313     c0.772-1.195,1.428-2.482,1.963-3.805c0.551-1.384,0.973-2.828,1.271-4.293c0.303-1.522,0.479-3.084,0.501-4.645     C35.583,25.782,35.469,24.207,35.215,22.629 M3.796,33.114l-0.441,0.014l0.394-1.542c0.039-0.118,0.064-0.118,0.071-0.069     C3.813,32.081,3.796,32.608,3.796,33.114 M4.012,28.929l-0.935-0.413c-0.056-0.028-0.037-0.044,0.018-0.044l1.952-0.01     c0.057,0,0.057,0.016,0.006,0.043l-0.874,0.424C4.134,28.943,4.051,28.943,4.012,28.929 M2.846,28.068l1.017-0.714     c0.004,0.23,0,0.464-0.013,0.714H2.846z M3.163,25.632l1.757-0.011c0.041,0,0.051,0.011,0.015,0.029l-0.778,0.372     c-0.053,0.02-0.125,0.02-0.17,0.014l-0.823-0.372C3.124,25.638,3.124,25.632,3.163,25.632 M2.959,25.271l0.933-0.621     c0,0.188-0.011,0.396-0.011,0.609L2.959,25.271z M4.224,24.653l0.93,0.605H4.242C4.232,25.046,4.224,24.849,4.224,24.653      M4.284,27.345l1.023,0.713H4.292C4.292,27.818,4.284,27.574,4.284,27.345 M4.408,33.114c0-0.506-0.028-1.043-0.028-1.59     c0-0.043,0.021-0.064,0.067,0.044l0.417,1.546H4.408z M17.904,46.829c-2.724,0.02-5.277-0.776-7.536-2.228     c1.737-0.031,3.482,0.189,5.217,0.433c1.709,0.258,3.443,0.529,5.192,0.7c0.676,0.061,1.348,0.101,2.013,0.136     C21.253,46.482,19.614,46.823,17.904,46.829 M25.829,44.211c-1.717,0.202-3.448,0.132-5.16-0.051     c-1.722-0.178-3.417-0.453-5.13-0.693c-1.752-0.235-3.524-0.445-5.313-0.426c-0.597,0.011-1.204,0.041-1.79,0.104     c-0.573-0.499-1.098-1.033-1.641-1.616c1.796-0.272,3.615-0.28,5.411-0.158c1.795,0.128,3.58,0.371,5.369,0.624     c0.909,0.123,1.795,0.267,2.683,0.369c0.461,0.05,2.235,0.182,2.677,0.182c1.775-0.016,3.586-0.16,5.357-0.457     C27.523,42.894,26.711,43.603,25.829,44.211 M29.894,40.168c-1.715,0.432-3.48,0.662-5.252,0.762     c-0.881,0.038-1.767,0.081-2.641,0.038c-0.908-0.028-1.795-0.17-2.688-0.287c-1.763-0.262-3.54-0.52-5.333-0.711     c-1.774-0.191-3.57-0.288-5.37-0.191c-0.973,0.054-1.959,0.171-2.91,0.374c-0.32-0.461-0.647-0.945-0.939-1.439     c1.584-0.331,3.177-0.549,4.803-0.622c1.622-0.054,3.251,0.042,4.877,0.24c1.576,0.199,3.118,0.472,4.688,0.675     c1.435,0.186,2.872,0.299,4.314,0.299c1.514-0.011,3.011-0.151,4.486-0.403c1.09-0.178,2.167-0.413,3.226-0.701     C30.746,38.901,30.34,39.558,29.894,40.168 M5.987,34.804c-0.756-0.477-0.857-1.28-0.813-1.441l2.286-5.48     c0.048-0.09,0.06-0.063,0.06,0L5.987,34.804z M7.497,29.653c-0.024,2.451-0.046,4.731-0.051,5.807     c-0.421-0.104-0.841-0.246-1.194-0.483l1.199-5.43C7.472,29.482,7.497,29.566,7.497,29.653 M6.847,24.871l1.744-0.011     c0.051,0,0.051,0.011,0.009,0.029l-0.79,0.369c-0.021,0.035-0.104,0.035-0.146,0.012l-0.822-0.369     C6.795,24.88,6.795,24.871,6.847,24.871 M6.636,24.511l0.908-0.6v0.591L6.636,24.511z M7.919,23.897l0.904,0.604H7.926     C7.926,24.3,7.919,24.099,7.919,23.897 M9.829,31.909c-0.035,1.188-0.054,2.353-0.071,3.256c0,0-0.018,0.007-0.023,0.024     L8.94,31.813l0.393-1.004L9.829,31.909z M9.5,30.441l0.297-0.72c0.039-0.045,0.058-0.037,0.071,0     c-0.014,0.47-0.032,0.978-0.032,1.492L9.5,30.441z M8.739,32.272l0.771,3.063c-0.262,0.124-0.59,0.175-0.877,0.219     c-0.092,0.011-0.196,0.022-0.307,0.022c-0.057,0.01-0.119,0.021-0.188,0.01c0-0.415-0.013-1.032-0.021-1.804L8.739,32.272z      M8.102,33.068c-0.028-1.022-0.039-2.213-0.065-3.448c0.012-0.079,0.026-0.17,0.065-0.023l0.519,2.195L8.102,33.068z      M8.824,31.328l-0.814-3.446c-0.012-0.063,0-0.099,0.054,0l1.118,2.578L8.824,31.328z M10.342,32.397v-0.505     c-0.021-0.898-0.039-1.31-0.073-2.146c0.014-0.05,0.02-0.093,0.073-0.024l1.393,3.441c-0.22,0.447-0.257,0.609-0.606,0.988     L10.342,32.397z M10.894,34.378c-0.129,0.152-0.309,0.304-0.469,0.426c-0.015-0.461-0.039-1.071-0.054-1.627L10.894,34.378z      M12.31,33.038l1.558-3.408c-0.018,0.971-0.05,2.377-0.073,3.4h-0.646C12.92,33.03,12.542,33.056,12.31,33.038 M23.594,28.631     l2.29-0.021c0.049,0,0.072,0.011,0.027,0.028c-0.015,0.011-1.028,0.507-1.028,0.507c-0.077,0.029-0.163,0.029-0.218,0     l-1.077-0.47C23.523,28.639,23.529,28.631,23.594,28.631 M23.338,28.166l1.169-0.866c0.02,0.252,0.02,0.836,0.02,0.855     L23.338,28.166z M23.744,24.796l0.036-0.021l1.911-0.01h0.036l0.014,0.01h-0.014c0.014,0.008,0.014,0.021-0.021,0.035     l-0.854,0.406c-0.047,0.029-0.133,0.029-0.188,0.02L23.78,24.82C23.744,24.82,23.744,24.796,23.744,24.796 M23.541,24.386     l1.018-0.737v0.722L23.541,24.386z M24.913,23.658l1.021,0.706l-1.008,0.006C24.925,24.128,24.925,23.89,24.913,23.658      M24.974,27.3l1.207,0.845l-1.167,0.011C25.001,27.882,24.989,27.585,24.974,27.3 M28.442,26.37l1.956-0.014     c0.048,0,0.054,0.014,0.006,0.031l-0.886,0.43c-0.049,0.02-0.131,0.02-0.17,0l-0.915-0.413     C28.376,26.376,28.376,26.37,28.442,26.37 M28.183,25.954l1.037-0.709c-0.023,0.228-0.014,0.461-0.023,0.709H28.183z      M29.62,25.235l1.038,0.713h-1.024C29.633,25.706,29.62,25.473,29.62,25.235 M29.197,29.443c-0.027,2.364-0.064,4.899-0.064,6.69     c-0.58,0.203-1.069,0.257-1.51,0.227l0.93-4.344l0.58-2.573C29.148,29.404,29.18,29.358,29.197,29.443 M29.047,28.431     l-1.646,7.516l-0.752-2.019l2.283-5.581C29,28.239,29.077,28.155,29.047,28.431 M27.217,36.306     c-0.525-0.113-0.952-0.388-1.284-0.67l0.552-1.313L27.217,36.306z M25.727,35.425c-0.329-0.329-0.505-0.672-0.593-0.819     c-0.02-1.142-0.063-2.842-0.096-4.658l1.313,3.96L25.727,35.425z M22.935,34.53l-2.823,0.024l4.153-4.73L22.935,34.53z      M24.493,29.941c0,1.062-0.017,4.46-0.017,4.579l-1.254,0.01L24.493,29.941z M29.697,29.436     c-0.012-0.084,0.033-0.054,0.063,0.008l1.19,5.047c-0.239,0.6-0.76,1.04-1.137,1.288C29.802,34.856,29.71,29.45,29.697,29.436      M31.246,34.457l-1.456-5.979c-0.051-0.365,0.046-0.238,0.12-0.102l2.652,6.081H31.246z M33.569,31.524     c-0.185,0.957-0.444,1.9-0.739,2.818l-3.162-7.403l1.366-0.624c0.152-0.062,0.152-0.273,0-0.338c0,0-1.358-0.958-1.432-1.01     l-0.044-2.271c0.16-0.033,0.324-0.104,0.485-0.13c0.19-0.028,0.36,0,0.535,0.034c0.159,0.016,0.327,0.044,0.487-0.027     c0.152-0.035,0.285-0.115,0.415-0.208c-0.364-0.008-0.659-0.231-0.97-0.366c-0.158-0.089-0.33-0.118-0.508-0.148     c-0.168-0.014-0.359-0.02-0.534,0.03c-0.017-0.138-0.034-0.271-0.062-0.418h-0.079c-0.091,0.62-0.085,1.308-0.085,1.933     c0,0.439-0.006,0.894-0.006,1.338c0,0.087,0,0.146-0.018,0.234l-1.402,1.017c-0.139,0.069-0.139,0.27,0,0.355l1.34,0.608     l-2.643,6.575l-1.42-4.218l1.521-0.731c0.165-0.069,0.165-0.318,0.021-0.401c0,0-1.468-1.002-1.663-1.138     c-0.008-0.532-0.017-1.106-0.017-1.62l1.381-0.66v-0.01c0.149-0.064,0.158-0.276,0.021-0.35c0,0-1.276-0.879-1.447-1.012     c-0.019-1.037-0.042-2.073-0.05-3.093c0.063,0,0.151-0.033,0.232-0.054c0.08-0.02,0.167-0.059,0.26-0.075     c0.182-0.034,0.357-0.012,0.542,0.017c0.171,0.039,0.337,0.044,0.505,0c0.147-0.039,0.29-0.121,0.396-0.219     c-0.344-0.009-0.634-0.229-0.955-0.379c-0.158-0.072-0.342-0.106-0.507-0.122c-0.167-0.025-0.37-0.038-0.538,0.016     c-0.008-0.124-0.031-0.263-0.053-0.422h-0.072c-0.095,0.58-0.095,1.151-0.095,1.729c-0.012,0.528,0,1.049-0.012,1.575     c-0.009,0.339-0.009,0.686-0.009,1.026L23.13,24.41c-0.142,0.083-0.142,0.278,0,0.354l1.406,0.65c0.006,0.502,0,1.088,0,1.62     l-1.641,1.154c-0.157,0.081-0.157,0.326,0,0.4l1.521,0.707l-4.676,5.258c-0.083,0-0.681,0.007-0.762,0.127     c-0.115,0.095-0.122,0.235-0.073,0.371c0.07,0.161,0.206,0.283,0.366,0.372c0.077,0.05,0.17,0.086,0.255,0.121     c0,0,0.022,0.009,0.034,0.031c0,0,0.436,1.389,2.25,2.047h-0.014c0,0,0.056,0.01,0.042,0.055l-0.006,0.009     c-0.022,0.009-0.044,0.023-0.044,0.023c-1.747-0.097-3.455-0.37-5.167-0.647c-0.644-0.098-1.299-0.189-1.956-0.271     c-0.447-0.048-0.881-0.11-1.331-0.184c-0.038-0.01-0.061-0.03-0.065-0.044v-0.004v-0.008v-0.018     c0.005-0.006,0.005-0.021,0.027-0.029l0.015-0.01c2.396-0.733,2.884-2.482,2.884-2.482c0.036-0.02,0.057-0.032,0.087-0.045     c0.075-0.029,0.139-0.069,0.194-0.097c0.154-0.101,0.301-0.218,0.366-0.39c0.056-0.135,0.045-0.273-0.065-0.369     c-0.091-0.127-0.781-0.104-0.781-0.104h-0.125c0-0.371-0.01-1.34-0.036-1.973c0.074,0.028,0.153,0,0.228-0.014     c0.09-0.03,0.169-0.064,0.253-0.083c0.19-0.044,0.357-0.044,0.549-0.01c0.19,0.028,0.376,0.063,0.552,0.021     c0.167-0.039,0.295-0.129,0.422-0.229c-0.358-0.017-0.654-0.257-0.974-0.394c-0.158-0.073-0.358-0.105-0.521-0.117     c-0.194-0.021-0.404-0.031-0.559,0.044c-0.013-0.15-0.027-0.274-0.037-0.383h-0.065c-0.1,0.55-0.087,2.409-0.082,3.138     l-1.203,0.01c-0.054-1.311-0.127-3.073-0.152-4.198l1.032-2.265c0.148,0.063,0.306,0.086,0.453,0.138     c0.161,0.054,0.295,0.15,0.419,0.266c0.147,0.104,0.271,0.2,0.419,0.242c0.17,0.053,0.361,0.053,0.533,0.019     c-0.324-0.176-0.44-0.505-0.645-0.779c-0.1-0.127-0.226-0.249-0.363-0.346c-0.146-0.119-0.313-0.223-0.493-0.263     c0.036-0.128,0.082-0.286,0.107-0.37c-0.025-0.011,0-0.035-0.043-0.06c0,0,0-0.007-0.028-0.007     c-0.036,0.007-0.054,0.043-0.078,0.082c-0.086,0.106-0.216,0.33-0.235,0.374l-1.104,2.402c-0.013-0.374-0.023-0.747-0.035-1.138     c0-0.459-0.025-0.934-0.105-1.412h-0.06c-0.104,0.569-0.104,1.146-0.104,1.731c-0.012,0.516-0.025,1.034-0.025,1.565     l-1.898,3.984l-1.754-4.22c-0.021-0.519-0.031-1.033-0.045-1.564c-0.018-0.591-0.018-1.194-0.125-1.774h-0.057     c-0.102,0.58-0.102,1.159-0.113,1.742c0.012,0.543-0.004,1.068,0,1.597l-0.565,1.306l-1.36-3.134     c-0.017-0.52-0.017-1.033-0.034-1.535l1.229-0.584c0.126-0.046,0.132-0.235,0-0.3c0,0-1.041-0.738-1.271-0.894     c-0.015-1.079-0.033-2.164-0.039-3.246c0.069,0,0.152-0.03,0.217-0.05c0.085-0.026,0.181-0.055,0.277-0.073     c0.189-0.035,0.356,0,0.532,0.033c0.172,0.028,0.34,0.028,0.507-0.015c0.149-0.039,0.281-0.126,0.403-0.219     c-0.335-0.014-0.636-0.221-0.948-0.359c-0.154-0.072-0.318-0.126-0.494-0.15c-0.166-0.02-0.379-0.028-0.563,0.024     c-0.015-0.151-0.031-0.29-0.055-0.427h-0.07c-0.105,0.691-0.093,1.385-0.093,2.079c-0.013,0.683-0.013,1.349-0.013,2.031     c0,0.128,0,0.245-0.021,0.378L6.297,24.53c-0.124,0.07-0.124,0.252,0,0.307l1.239,0.567c0,0.573-0.017,1.485-0.017,1.544     l-2.456,5.888l-0.393-1.344h0.331h0.172c0.057,0,0.133-0.032,0.195-0.054c0.054-0.022,0.159-0.055,0.159-0.126     c0-0.054-0.094-0.099-0.137-0.107c-0.06-0.024-0.15-0.051-0.218-0.051h-0.58l-0.247-0.931c-0.01-0.381-0.019-0.773-0.019-1.143     l1.354-0.65c0.14-0.074,0.148-0.275,0.018-0.362c0,0-1.336-0.913-1.432-0.978c0-0.273,0-0.658-0.027-0.906l1.244-0.599     c0.124-0.067,0.124-0.237,0-0.302c0,0-1.106-0.791-1.276-0.914c-0.009-0.909-0.03-1.505-0.03-1.58     c0.149,0.024,0.293-0.065,0.441-0.094c0.148-0.023,0.299-0.01,0.466,0.02c0.145,0.021,0.294,0.044,0.442,0.009     c0.151-0.038,0.279-0.124,0.379-0.21c-0.313,0-0.564-0.204-0.844-0.336c-0.145-0.053-0.295-0.096-0.443-0.118     c-0.173-0.007-0.337-0.021-0.486,0.029c-0.021-0.111-0.047-0.239-0.063-0.364h-0.06c-0.094,0.497-0.11,0.999-0.11,1.486     c0,0.446,0,0.738-0.01,1.158l-1.258,0.914c-0.143,0.074-0.143,0.254,0,0.318l1.232,0.591c0,0.249,0,0.625-0.004,0.903     l-1.381,0.995c-0.151,0.074-0.151,0.272,0,0.347l1.357,0.643c0,0.383-0.014,0.762-0.02,1.143l-0.225,0.938H3.022     c-0.077,0-0.156,0.02-0.218,0.044c-0.047,0.024-0.158,0.054-0.158,0.118c0,0.072,0.107,0.106,0.149,0.125     c0.07,0.02,0.149,0.051,0.227,0.051h0.149H3.5l-0.404,1.629H2.402c-0.438-1.575-0.692-3.181-0.803-4.805     c-0.102-1.628-0.051-3.251,0.167-4.875c0.215-1.48,0.564-2.971,1.05-4.405c0.466-1.35,1.065-2.671,1.793-3.907     c0.373-0.654,0.791-1.288,1.244-1.897c1.881,0.609,4.304,0.025,4.304,0.025c2.169-0.399,3.529-0.343,4.317-0.228l0.423,0.07     c0.044-0.27,0.073-0.458,0.162-0.711c-2.289-0.711-4.853-0.352-4.853-0.352c-1.564,0.154-2.501-0.161-2.99-0.425     c0,0,0.969-1.048,1.766-1.61c0.713,0.494,1.596,0.746,2.416,0.871c0.576,0.098,1.127,0.142,1.67,0.257     c0.549,0.124,1.098,0.294,1.629,0.464c0.191,0.071,0.436,0.184,0.57,0.235c0.089-0.217,0.229-0.418,0.371-0.613l-0.351-0.227     c-0.702-0.411-1.384-0.601-2.127-0.831c-0.498-0.148-0.974-0.309-1.432-0.549c-0.65-0.327-1.026-0.743-1.071-0.759     c0,0,1.077-0.69,2.106-1.058c0.47,0.652,1.354,1.029,1.963,1.528c0.85,0.719,1.3,1.395,1.337,1.479     c0.189-0.148,0.372-0.267,0.624-0.369c-0.336-0.738-0.815-1.581-1.4-2.123c-0.266-0.242-0.653-0.661-0.784-1.088     c0,0,1.359-0.348,2.396-0.379l0.424,3.44c0.135-0.033,0.355-0.021,0.355-0.021s0.135-0.012,0.376,0.021l0.361-3.44     c0,0,0.92,0.043,1.683,0.19c0.42,0.083,0.739,0.157,0.739,0.157c-0.122,0.412-0.507,0.845-0.755,1.09     c-0.592,0.559-1.056,1.405-1.384,2.146c0.195,0.095,0.413,0.173,0.637,0.353c0.38-0.59,0.877-1.107,1.327-1.489     c0.578-0.507,1.439-0.916,1.917-1.561c0.119,0.041,0.642,0.239,1.487,0.663l0.631,0.368c-0.021,0.011-0.707,0.584-1.052,0.784     c-0.452,0.266-0.939,0.415-1.438,0.564c-0.746,0.242-1.406,0.442-2.109,0.853l-0.353,0.223c0.141,0.173,0.277,0.387,0.397,0.623     c0.125-0.065,0.363-0.181,0.549-0.243c0.533-0.182,1.088-0.347,1.646-0.488c0.524-0.123,1.094-0.171,1.625-0.273     c0.842-0.137,1.721-0.424,2.416-0.908c0.889,0.658,1.799,1.602,1.799,1.602c-0.488,0.268-1.451,0.591-2.993,0.456     c0,0-2.549-0.325-4.828,0.392c0.075,0.212,0.102,0.375,0.149,0.694l0.458-0.067c0.804-0.132,2.134-0.17,4.297,0.209     c0,0,2.401,0.55,4.292-0.078c0.185,0.235,0.355,0.488,0.521,0.741c0.812,1.153,1.489,2.396,2.047,3.693     c0.603,1.365,1.05,2.79,1.348,4.246c0.333,1.529,0.498,3.093,0.534,4.667C34.023,28.155,33.89,29.854,33.569,31.524"/>
		</g>
	</g>
	<g>
		<g>
			<g>
				<polygon fill="#FFFFFF" points="286.662,40.409 291.627,40.409 291.627,29.106 303.107,29.106 303.107,24.099 291.627,24.099       291.627,17.838 306.316,17.838 306.316,12.829 286.662,12.829     "/>
				<rect x="309.93" y="12.829" fill="#FFFFFF" width="4.959" height="27.58"/>
				<path fill="#FFFFFF" d="M333.121,17.21c2.531,0,4.91,1.105,7.145,3.318l3.613-3.501c-3.254-3.241-6.838-4.863-10.758-4.863      c-3.939,0-7.316,1.424-10.135,4.272c-2.777,2.798-4.162,6.187-4.162,10.164c0,4.002,1.385,7.398,4.162,10.201      c2.797,2.824,6.168,4.232,10.135,4.232s7.33-1.408,10.102-4.232l0.607-0.664l-0.641-0.626l-2.924-2.832      c-2.26,2.233-4.643,3.349-7.145,3.349c-2.555,0-4.734-0.934-6.564-2.801c-1.846-1.84-2.771-4.051-2.771-6.627      c0-2.551,0.926-4.764,2.771-6.627C328.359,18.133,330.549,17.21,333.121,17.21z"/>
				<rect x="347.889" y="12.829" fill="#FFFFFF" width="4.963" height="27.58"/>
				<path fill="#FFFFFF" d="M269.303,12.829l-9.955,27.58h5.289l2.111-5.816h9.701l2.158,5.816h5.289l-9.961-27.58H269.303z       M268.539,29.579l3.064-8.5l3.061,8.5H268.539z"/>
				<path fill="#FFFFFF" d="M253.619,26.381c1.801-1.255,2.703-3.06,2.703-5.415c0-2.332-0.926-4.308-2.773-5.931      c-1.725-1.471-3.754-2.206-6.09-2.206h-11.743v27.58h12.366c2.309,0,4.35-0.76,6.121-2.283c1.828-1.546,2.74-3.506,2.74-5.895      C256.943,29.579,255.832,27.632,253.619,26.381z M240.68,17.838h6.779c1.021,0,1.922,0.295,2.701,0.886      c0.773,0.561,1.164,1.313,1.164,2.242c0,0.935-0.391,1.681-1.164,2.248c-0.779,0.59-1.68,0.885-2.701,0.885h-6.779V17.838z       M250.814,34.479c-0.777,0.593-1.686,0.881-2.732,0.881h-7.402v-6.254h7.402c1.047,0,1.955,0.293,2.732,0.884      c0.779,0.638,1.166,1.386,1.166,2.241C251.98,33.144,251.594,33.896,250.814,34.479z"/>
			</g>
			<g>
				<g>
					<g>
						<path fill="#FFFFFF" d="M242.84,48.073l-1.566-1.262c1-1.363,1.973-2.104,3.783-2.104c2.162,0,3.496,1.248,3.496,3.147        c0,1.696-0.869,2.551-2.668,3.943l-1.654,1.276h4.424v1.93h-7.512v-1.77l3.379-2.77c1.262-1.045,1.756-1.596,1.756-2.437        c0-0.856-0.566-1.319-1.365-1.319C244.129,46.71,243.594,47.145,242.84,48.073z"/>
						<path fill="#FFFFFF" d="M252.641,44.78h1.521v10.225h-2.203v-7.963l-1.768,0.437l-0.465-1.827L252.641,44.78z"/>
					</g>
				</g>
				<path fill="#FFFFFF" d="M235.716,55.062V44.745h3.196v1.678h-1.518v6.959h1.518v1.68H235.716z"/>
				<path fill="#FFFFFF" d="M256.322,55.062v-1.68h1.502v-6.959h-1.502v-1.678h3.195v10.316H256.322z"/>
			</g>
			<g>
				<g>
					<path fill="#FFFFFF" d="M269.727,54.276c-0.602,0.605-1.33,0.904-2.182,0.904c-0.85,0-1.578-0.299-2.186-0.904       s-0.895-1.337-0.895-2.178c0-0.85,0.299-1.572,0.895-2.171c0.607-0.606,1.336-0.911,2.186-0.911       c0.852,0,1.623,0.346,2.322,1.036l-0.779,0.747c-0.48-0.47-0.992-0.707-1.543-0.707s-1.02,0.188-1.414,0.59       c-0.4,0.4-0.598,0.865-0.598,1.416c0,0.55,0.197,1.014,0.598,1.415c0.4,0.399,0.863,0.597,1.414,0.597s1.063-0.243,1.543-0.715       L269.717,54L269.727,54.276z"/>
					<path fill="#FFFFFF" d="M270.809,55.047v-5.891h1.07v5.891H270.809z"/>
					<path fill="#FFFFFF" d="M276.781,55.047l-2.734-3.854v3.854h-1.066v-5.891h0.973l2.736,3.854v-3.854h1.078v5.891H276.781z"/>
					<path fill="#FFFFFF" d="M278.857,55.047v-5.891h4.238v1.071h-3.168v1.337h2.479v1.069h-2.479v1.335h3.168v1.078H278.857z"/>
					<path fill="#FFFFFF" d="M287.691,55.047v-5.891h1.074v5.891H287.691z"/>
					<path fill="#FFFFFF" d="M293.67,55.047l-2.738-3.854v3.854h-1.07v-5.891h0.98l2.734,3.854v-3.854h1.076v5.891H293.67z"/>
					<path fill="#FFFFFF" d="M300.078,54.181c-0.574,0.575-1.268,0.866-2.076,0.866h-2.256v-5.891h2.256       c0.818,0,1.496,0.282,2.076,0.866c0.572,0.574,0.865,1.257,0.865,2.076C300.943,52.909,300.65,53.608,300.078,54.181z        M299.32,50.778c-0.375-0.372-0.809-0.551-1.318-0.551h-1.191v3.741h1.191c0.51,0,0.943-0.18,1.318-0.549       c0.373-0.37,0.553-0.802,0.553-1.321S299.693,51.147,299.32,50.778z"/>
					<path fill="#FFFFFF" d="M301.973,55.047v-5.891h4.238v1.071h-3.17v1.337h2.479v1.069h-2.479v1.335h3.17v1.078H301.973z"/>
					<path fill="#FFFFFF" d="M311.154,52.153c-0.377,0.321-0.816,0.48-1.32,0.48h-1.463v2.413h-1.07v-5.891h2.533       c0.504,0,0.943,0.158,1.313,0.472c0.402,0.348,0.598,0.763,0.598,1.267S311.549,51.814,311.154,52.153z M310.416,50.414       c-0.164-0.125-0.357-0.187-0.582-0.187h-1.463v1.337h1.463c0.225,0,0.418-0.063,0.582-0.191       c0.174-0.124,0.254-0.29,0.254-0.479C310.67,50.699,310.59,50.542,310.416,50.414z"/>
					<path fill="#FFFFFF" d="M312.602,55.047v-5.891h4.236v1.071h-3.17v1.337h2.479v1.069h-2.479v1.335h3.17v1.078H312.602z"/>
					<path fill="#FFFFFF" d="M321.736,55.047L319,51.192v3.854h-1.07v-5.891h0.977l2.736,3.854v-3.854h1.076v5.891H321.736z"/>
					<path fill="#FFFFFF" d="M328.141,54.181c-0.572,0.575-1.266,0.866-2.076,0.866h-2.254v-5.891h2.254       c0.822,0,1.494,0.282,2.076,0.866c0.574,0.574,0.865,1.257,0.865,2.076C329.006,52.909,328.715,53.608,328.141,54.181z        M327.387,50.778c-0.375-0.372-0.809-0.551-1.322-0.551h-1.186v3.741h1.186c0.514,0,0.947-0.18,1.322-0.549       c0.371-0.37,0.553-0.802,0.553-1.321S327.758,51.147,327.387,50.778z"/>
					<path fill="#FFFFFF" d="M330.037,55.047v-5.891h1.068v5.891H330.037z"/>
					<path fill="#FFFFFF" d="M332.209,55.047v-5.891h4.236v1.071h-3.17v1.337h2.479v1.069h-2.479v1.335h3.17v1.078H332.209z"/>
					<path fill="#FFFFFF" d="M341.344,55.047l-2.738-3.854v3.854h-1.068v-5.891h0.973l2.738,3.854v-3.854h1.076v5.891H341.344z"/>
					<path fill="#FFFFFF" d="M346.002,50.228v4.819h-1.076v-4.819h-1.787v-1.071h4.65v1.071H346.002z"/>
					<path fill="#FFFFFF" d="M348.609,55.047v-5.891h4.242v1.071h-3.168v1.337h2.475v1.069h-2.475v1.335h3.168v1.078H348.609z"/>
				</g>
			</g>
			<g>
				<path fill="#FFFFFF" d="M237.889,6.447h-2.204V0.792h2.204c1.777,0,3.006,1.22,3.006,2.812v0.016      C240.895,5.212,239.666,6.447,237.889,6.447z M239.594,3.619c0-1.002-0.688-1.704-1.705-1.704h-0.961v3.408h0.961      c1.018,0,1.705-0.686,1.705-1.688V3.619z"/>
				<path fill="#FFFFFF" d="M242.014,6.447V0.792h4.268v1.107h-3.029v1.146h2.666v1.106h-2.666V5.34h3.068v1.107H242.014z"/>
				<path fill="#FFFFFF" d="M247.529,6.447V0.792h1.244v4.523h2.818v1.132H247.529z"/>
				<path fill="#FFFFFF" d="M254.91,1.858V0.792h3.822v0.938l-1.43,1.365c0.773,0.128,1.52,0.533,1.52,1.591      c0,1.075-0.775,1.858-2.037,1.858c-1.018,0-1.721-0.404-2.205-0.979l0.855-0.815c0.389,0.436,0.791,0.679,1.365,0.679      c0.471,0,0.799-0.267,0.799-0.694c0-0.469-0.395-0.728-1.105-0.728h-0.516l-0.195-0.791l1.35-1.357H254.91z"/>
				<path fill="#FFFFFF" d="M266.6,6.447l-0.52-1.269h-2.391l-0.516,1.269h-1.27l2.424-5.695h1.148l2.422,5.695H266.6z       M264.887,2.246l-0.752,1.834h1.502L264.887,2.246z"/>
				<path fill="#FFFFFF" d="M268.742,6.447V0.792h1.242v4.523h2.82v1.132H268.742z"/>
				<path fill="#FFFFFF" d="M277.303,0.752h0.85v5.695h-1.23V2.012l-0.984,0.242l-0.258-1.018L277.303,0.752z"/>
				<path fill="#FFFFFF" d="M283.195,0.752v3.466h0.76v1.008h-0.76v1.222h-1.189V5.226h-2.762l-0.201-0.879l3.102-3.595H283.195z       M282.006,2.456l-1.5,1.762h1.5V2.456z"/>
				<path fill="#FFFFFF" d="M289.662,6.447h-2.203V0.792h2.203c1.779,0,3.006,1.22,3.006,2.812v0.016      C292.668,5.212,291.441,6.447,289.662,6.447z M291.367,3.619c0-1.002-0.688-1.704-1.705-1.704h-0.959v3.408h0.959      c1.018,0,1.705-0.686,1.705-1.688V3.619z"/>
				<path fill="#FFFFFF" d="M293.793,6.447V0.792h4.262v1.107h-3.027v1.146h2.666v1.106h-2.666V5.34h3.07v1.107H293.793z"/>
				<path fill="#FFFFFF" d="M305.834,6.447l-0.518-1.269h-2.391l-0.518,1.269h-1.266l2.422-5.695h1.146l2.424,5.695H305.834z       M304.121,2.246l-0.75,1.834h1.502L304.121,2.246z"/>
				<path fill="#FFFFFF" d="M310.67,6.447h-2.691V0.792h2.625c1.156,0,1.865,0.573,1.865,1.462v0.017c0,0.638-0.34,0.993-0.742,1.22      c0.654,0.25,1.059,0.63,1.059,1.39v0.017C312.785,5.93,311.943,6.447,310.67,6.447z M311.234,2.464      c0-0.371-0.291-0.582-0.816-0.582h-1.229v1.196h1.148c0.549,0,0.896-0.178,0.896-0.598V2.464z M311.549,4.726      c0-0.379-0.283-0.613-0.922-0.613h-1.438v1.244h1.48c0.549,0,0.879-0.194,0.879-0.614V4.726z"/>
				<path fill="#FFFFFF" d="M317.328,6.447l-1.211-1.81h-0.979v1.81h-1.242V0.792h2.584c1.334,0,2.133,0.703,2.133,1.866v0.016      c0,0.913-0.494,1.487-1.211,1.753l1.379,2.021H317.328z M317.354,2.723c0-0.534-0.373-0.808-0.977-0.808h-1.238v1.623h1.262      c0.605,0,0.953-0.322,0.953-0.8V2.723z"/>
				<path fill="#FFFFFF" d="M319.813,6.447V0.792h1.246v5.655H319.813z"/>
				<path fill="#FFFFFF" d="M322.492,6.447V0.792h1.244v4.523h2.82v1.132H322.492z"/>
				<path fill="#FFFFFF" d="M330.164,7.48V0h0.969v7.48H330.164z"/>
				<path fill="#FFFFFF" d="M335.826,2.585l-0.873-0.703c0.559-0.759,1.098-1.17,2.109-1.17c1.201,0,1.945,0.693,1.945,1.752      c0,0.945-0.484,1.422-1.486,2.197l-0.918,0.711h2.463v1.075h-4.188V5.461l1.885-1.543c0.703-0.581,0.977-0.888,0.977-1.356      c0-0.477-0.314-0.736-0.76-0.736C336.545,1.825,336.244,2.068,335.826,2.585z"/>
				<path fill="#FFFFFF" d="M342.441,6.544c-1.512,0-2.506-1.269-2.506-2.916c0-1.648,1.01-2.933,2.52-2.933      c1.512,0,2.506,1.268,2.506,2.916C344.961,5.259,343.951,6.544,342.441,6.544z M342.441,1.818c-0.752,0-1.23,0.751-1.23,1.793      s0.494,1.809,1.244,1.809c0.752,0,1.229-0.759,1.229-1.792C343.684,2.593,343.191,1.818,342.441,1.818z"/>
				<path fill="#FFFFFF" d="M347.07,0.752h0.85v5.695h-1.229V2.012l-0.984,0.242l-0.262-1.018L347.07,0.752z"/>
				<path fill="#FFFFFF" d="M351.094,6.544c-0.824,0-1.381-0.275-1.857-0.672l0.654-0.943c0.412,0.33,0.76,0.484,1.236,0.484      c0.693,0,1.064-0.525,1.145-1.284c-0.273,0.233-0.652,0.388-1.145,0.388c-1.229,0-2.021-0.68-2.021-1.834      c0-1.147,0.881-1.987,2.158-1.987c0.76,0,1.203,0.187,1.631,0.614c0.404,0.403,0.672,1.018,0.672,2.14      C353.566,5.291,352.701,6.544,351.094,6.544z M351.305,1.761c-0.613,0-0.961,0.355-0.961,0.865c0,0.508,0.371,0.855,0.986,0.855      c0.613,0,0.967-0.355,0.967-0.848C352.297,2.124,351.926,1.761,351.305,1.761z"/>
			</g>
			<g>
				<g>
					<path fill="#FFFFFF" d="M266.023,47.412h-1.289v-2.706h1.258c0.553,0,0.893,0.275,0.893,0.699v0.008       c0,0.307-0.162,0.477-0.357,0.585c0.314,0.118,0.508,0.301,0.508,0.665v0.006C267.035,47.165,266.633,47.412,266.023,47.412z        M266.293,45.507c0-0.178-0.139-0.279-0.389-0.279h-0.59v0.573h0.551c0.262,0,0.428-0.086,0.428-0.286V45.507z M266.443,46.589       c0-0.183-0.135-0.293-0.439-0.293h-0.689v0.594h0.709c0.262,0,0.42-0.092,0.42-0.293V46.589z"/>
					<path fill="#FFFFFF" d="M268.537,47.454c-0.727,0-1.172-0.405-1.172-1.201v-1.547h0.596v1.531c0,0.44,0.221,0.668,0.584,0.668       s0.584-0.22,0.584-0.649v-1.55h0.594v1.526C269.723,47.053,269.264,47.454,268.537,47.454z"/>
					<path fill="#FFFFFF" d="M270.211,47.412v-2.706h2.043v0.53h-1.451v0.549h1.275v0.529h-1.275v0.568h1.471v0.529H270.211z"/>
					<path fill="#FFFFFF" d="M274.582,47.412l-1.311-1.72v1.72h-0.586v-2.706h0.547l1.27,1.666v-1.666h0.586v2.706H274.582z"/>
					<path fill="#FFFFFF" d="M276.934,47.458c-0.834,0-1.434-0.622-1.434-1.391V46.06c0-0.77,0.605-1.4,1.441-1.4       c0.834,0,1.434,0.623,1.434,1.393v0.008C278.375,46.828,277.768,47.458,276.934,47.458z M277.752,46.06       c0-0.464-0.34-0.851-0.818-0.851c-0.48,0-0.813,0.379-0.813,0.843v0.008c0,0.463,0.342,0.85,0.82,0.85s0.811-0.379,0.811-0.842       V46.06z"/>
					<path fill="#FFFFFF" d="M279.729,47.45c-0.408,0-0.82-0.143-1.146-0.433l0.352-0.421c0.244,0.201,0.498,0.328,0.809,0.328       c0.242,0,0.389-0.097,0.389-0.256v-0.006c0-0.151-0.092-0.229-0.543-0.345c-0.547-0.14-0.896-0.29-0.896-0.828v-0.007       c0-0.49,0.393-0.815,0.945-0.815c0.395,0,0.73,0.124,1.004,0.344l-0.309,0.448c-0.238-0.165-0.475-0.266-0.703-0.266       s-0.348,0.104-0.348,0.235v0.007c0,0.179,0.117,0.236,0.584,0.355c0.549,0.144,0.857,0.341,0.857,0.813v0.008       C280.723,47.149,280.314,47.45,279.729,47.45z"/>
					<path fill="#FFFFFF" d="M284.18,47.412l-0.248-0.606h-1.143l-0.248,0.606h-0.607l1.16-2.726h0.549l1.158,2.726H284.18z        M283.359,45.402l-0.357,0.877h0.719L283.359,45.402z"/>
					<path fill="#FFFFFF" d="M285.127,47.412v-2.706h0.596v2.706H285.127z"/>
					<path fill="#FFFFFF" d="M287.926,47.412l-0.58-0.866h-0.467v0.866h-0.596v-2.706h1.236c0.639,0,1.02,0.336,1.02,0.894v0.008       c0,0.437-0.234,0.711-0.578,0.839l0.66,0.966H287.926z M287.938,45.63c0-0.254-0.178-0.386-0.467-0.386h-0.592v0.776h0.602       c0.291,0,0.457-0.154,0.457-0.383V45.63z"/>
					<path fill="#FFFFFF" d="M288.959,47.412v-2.706H291v0.53h-1.449v0.549h1.275v0.529h-1.275v0.568h1.471v0.529H288.959z"/>
					<path fill="#FFFFFF" d="M292.395,47.45c-0.41,0-0.824-0.143-1.148-0.433l0.352-0.421c0.244,0.201,0.498,0.328,0.809,0.328       c0.24,0,0.391-0.097,0.391-0.256v-0.006c0-0.151-0.096-0.229-0.545-0.345c-0.547-0.14-0.896-0.29-0.896-0.828v-0.007       c0-0.49,0.393-0.815,0.945-0.815c0.395,0,0.73,0.124,1.004,0.344l-0.309,0.448c-0.238-0.165-0.475-0.266-0.703-0.266       c-0.227,0-0.348,0.104-0.348,0.235v0.007c0,0.179,0.115,0.236,0.584,0.355c0.549,0.144,0.859,0.341,0.859,0.813v0.008       C293.389,47.149,292.977,47.45,292.395,47.45z"/>
					<path fill="#FFFFFF" d="M295.426,45.247v0.576h1.291v0.541h-1.291v1.048h-0.596v-2.706h2.061v0.541H295.426z"/>
					<path fill="#FFFFFF" d="M297.248,47.412v-2.706h2.041v0.53h-1.451v0.549h1.277v0.529h-1.277v0.568h1.471v0.529H297.248z"/>
					<path fill="#FFFFFF" d="M300.682,47.45c-0.408,0-0.824-0.143-1.148-0.433l0.354-0.421c0.242,0.201,0.498,0.328,0.807,0.328       c0.244,0,0.391-0.097,0.391-0.256v-0.006c0-0.151-0.094-0.229-0.545-0.345c-0.545-0.14-0.896-0.29-0.896-0.828v-0.007       c0-0.49,0.393-0.815,0.947-0.815c0.395,0,0.73,0.124,1.004,0.344l-0.309,0.448c-0.24-0.165-0.477-0.266-0.705-0.266       c-0.227,0-0.346,0.104-0.346,0.235v0.007c0,0.179,0.115,0.236,0.582,0.355c0.551,0.144,0.859,0.341,0.859,0.813v0.008       C301.676,47.149,301.266,47.45,300.682,47.45z"/>
					<path fill="#FFFFFF" d="M303.244,45.255v2.157h-0.596v-2.157h-0.824v-0.549h2.242v0.549H303.244z"/>
					<path fill="#FFFFFF" d="M304.432,47.412v-2.706h0.594v2.706H304.432z"/>
					<path fill="#FFFFFF" d="M306.975,47.432h-0.527l-1.092-2.726h0.656l0.707,1.906l0.707-1.906h0.643L306.975,47.432z"/>
					<path fill="#FFFFFF" d="M309.994,47.412l-0.248-0.606h-1.145l-0.246,0.606h-0.605l1.158-2.726h0.549l1.16,2.726H309.994z        M309.176,45.402l-0.359,0.877h0.717L309.176,45.402z"/>
					<path fill="#FFFFFF" d="M310.918,47.412v-2.706h0.596v2.164h1.348v0.542H310.918z"/>
					<path fill="#FFFFFF" d="M314.262,47.412v-2.706h0.596v2.706H314.262z"/>
					<path fill="#FFFFFF" d="M317.313,47.412l-1.309-1.72v1.72h-0.588v-2.706h0.547l1.27,1.666v-1.666h0.588v2.706H317.313z"/>
					<path fill="#FFFFFF" d="M319.576,45.255v2.157h-0.594v-2.157h-0.824v-0.549h2.242v0.549H319.576z"/>
					<path fill="#FFFFFF" d="M320.738,47.412v-2.706h2.041v0.53h-1.451v0.549h1.277v0.529h-1.277v0.568h1.471v0.529H320.738z"/>
					<path fill="#FFFFFF" d="M324.852,47.412l-0.58-0.866h-0.467v0.866h-0.594v-2.706h1.236c0.637,0,1.02,0.336,1.02,0.894v0.008       c0,0.437-0.236,0.711-0.578,0.839l0.658,0.966H324.852z M324.863,45.63c0-0.254-0.18-0.386-0.467-0.386h-0.592v0.776h0.604       c0.289,0,0.455-0.154,0.455-0.383V45.63z"/>
					<path fill="#FFFFFF" d="M327.783,47.412l-1.311-1.72v1.72h-0.586v-2.706h0.549l1.266,1.666v-1.666h0.588v2.706H327.783z"/>
					<path fill="#FFFFFF" d="M330.836,47.412l-0.248-0.606h-1.145l-0.248,0.606h-0.607l1.16-2.726h0.551l1.158,2.726H330.836z        M330.016,45.402l-0.361,0.877h0.721L330.016,45.402z"/>
					<path fill="#FFFFFF" d="M332.85,47.458c-0.795,0-1.387-0.614-1.387-1.391V46.06c0-0.77,0.58-1.4,1.41-1.4       c0.512,0,0.816,0.171,1.066,0.418l-0.377,0.438c-0.211-0.189-0.422-0.306-0.693-0.306c-0.457,0-0.785,0.379-0.785,0.843v0.008       c0,0.463,0.322,0.85,0.785,0.85c0.311,0,0.498-0.123,0.713-0.316l0.377,0.383C333.68,47.272,333.371,47.458,332.85,47.458z"/>
					<path fill="#FFFFFF" d="M334.346,47.412v-2.706h0.594v2.706H334.346z"/>
					<path fill="#FFFFFF" d="M336.813,47.458c-0.834,0-1.434-0.622-1.434-1.391V46.06c0-0.77,0.607-1.4,1.441-1.4       c0.836,0,1.434,0.623,1.434,1.393v0.008C338.254,46.828,337.648,47.458,336.813,47.458z M337.633,46.06       c0-0.464-0.34-0.851-0.82-0.851s-0.811,0.379-0.811,0.843v0.008c0,0.463,0.34,0.85,0.818,0.85c0.48,0,0.813-0.379,0.813-0.842       V46.06z"/>
					<path fill="#FFFFFF" d="M340.564,47.412l-1.311-1.72v1.72h-0.588v-2.706h0.547l1.27,1.666v-1.666h0.588v2.706H340.564z"/>
					<path fill="#FFFFFF" d="M343.613,47.412l-0.244-0.606h-1.145l-0.248,0.606h-0.607l1.16-2.726h0.551l1.156,2.726H343.613z        M342.795,45.402l-0.357,0.877h0.717L342.795,45.402z"/>
					<path fill="#FFFFFF" d="M344.537,47.412v-2.706h0.594v2.164h1.348v0.542H344.537z"/>
					<path fill="#FFFFFF" d="M348.908,47.412h-1.053v-2.706h1.053c0.85,0,1.438,0.584,1.438,1.346v0.008       C350.346,46.82,349.758,47.412,348.908,47.412z M349.723,46.06c0-0.479-0.326-0.815-0.814-0.815h-0.461v1.63h0.461       c0.488,0,0.814-0.328,0.814-0.807V46.06z"/>
					<path fill="#FFFFFF" d="M350.758,47.412v-2.706h2.041v0.53h-1.449v0.549h1.277v0.529h-1.277v0.568h1.469v0.529H350.758z"/>
				</g>
			</g>
		</g>
		<g>
			<path fill="#FFFFFF" d="M184.808,39.012c-1.051-0.692-2.479-0.402-3.173,0.649l-5.608,8.492l-0.006,0.002l-1.274,1.93     l-1.33-1.931l-0.002-0.002l-5.864-8.521c-0.713-1.037-2.131-1.29-3.168-0.578c-1.037,0.714-1.537,2.149-0.824,3.187l3.824,5.924     v0.001l5.284,7.488c0.427,0.618,1.366,1.19,2.117,1.19c0.007,0,0.014,0,0.021,0c0.76,0,1.563-0.594,1.981-1.227l4.902-7.448     v-0.001l3.836-5.999C186.215,41.117,185.86,39.704,184.808,39.012z"/>
			<g>
				<g>
					<g>
						<path fill="#FFFFFF" d="M145.604,34.165c0.193-0.132,0.373-0.326,0.584-0.379c0.29-0.07,0.575,0.238,0.559,0.541        c-0.019,0.314-0.225,0.476-0.513,0.509C145.949,34.87,145.675,34.575,145.604,34.165z"/>
						<path fill="#FFFFFF" d="M157.449,19.509c0.03-0.33,0.188-0.536,0.53-0.536c0.345,0,0.523,0.217,0.523,0.532        c0,0.304-0.201,0.51-0.504,0.515C157.685,20.024,157.479,19.841,157.449,19.509z"/>
						<path fill="#FFFFFF" d="M150.339,36.711c-0.13,0.093-0.307,0.319-0.514,0.351c-0.31,0.047-0.537-0.19-0.542-0.506        c-0.006-0.312,0.181-0.546,0.52-0.533C150.121,36.034,150.309,36.229,150.339,36.711z"/>
						<path fill="#FFFFFF" d="M151.875,18.628c-0.348-0.025-0.543-0.214-0.551-0.531c-0.005-0.303,0.197-0.51,0.494-0.518        c0.307-0.01,0.539,0.158,0.55,0.5C152.379,18.417,152.178,18.581,151.875,18.628z"/>
						<path fill="#FFFFFF" d="M162.905,26.487c-0.03,0.318-0.199,0.516-0.53,0.513c-0.339-0.003-0.523-0.224-0.521-0.538        c0.004-0.297,0.206-0.499,0.509-0.504C162.683,25.955,162.875,26.142,162.905,26.487z"/>
						<path fill="#FFFFFF" d="M143.996,28.636c-0.028,0.31-0.198,0.508-0.531,0.505c-0.334-0.003-0.521-0.222-0.517-0.537        c0.002-0.299,0.206-0.504,0.505-0.503C143.762,28.102,143.972,28.278,143.996,28.636z"/>
						<path fill="#FFFFFF" d="M144.341,32.659c0.019-0.343,0.196-0.549,0.52-0.557c0.325-0.008,0.571,0.215,0.514,0.519        c-0.036,0.201-0.283,0.46-0.483,0.511C144.587,33.207,144.381,32.976,144.341,32.659z"/>
						<path fill="#FFFFFF" d="M154.042,18.631c-0.376-0.025-0.579-0.203-0.587-0.527c-0.009-0.336,0.22-0.521,0.531-0.525        c0.301-0.005,0.505,0.193,0.516,0.496C154.512,18.395,154.321,18.585,154.042,18.631z"/>
						<path fill="#FFFFFF" d="M143.645,27.021c-0.501-0.002-0.687-0.199-0.702-0.514c-0.016-0.306,0.178-0.502,0.476-0.543        c0.282-0.041,0.628,0.274,0.557,0.547C143.92,26.724,143.726,26.901,143.645,27.021z"/>
						<path fill="#FFFFFF" d="M156.069,19.085c-0.353-0.01-0.54-0.205-0.533-0.525c0.007-0.322,0.219-0.52,0.548-0.507        c0.307,0.011,0.49,0.19,0.487,0.512C156.569,18.896,156.409,19.087,156.069,19.085z"/>
						<path fill="#FFFFFF" d="M159.14,34.272c0.045-0.348,0.248-0.585,0.553-0.508c0.201,0.048,0.45,0.311,0.485,0.513        c0.053,0.298-0.187,0.531-0.52,0.525C159.33,34.797,159.168,34.578,159.14,34.272z"/>
						<path fill="#FFFFFF" d="M162.398,28.068c0.321,0.062,0.52,0.228,0.5,0.566c-0.021,0.313-0.224,0.491-0.52,0.489        c-0.324-0.002-0.525-0.219-0.521-0.537C161.86,28.263,162.083,28.1,162.398,28.068z"/>
						<path fill="#FFFFFF" d="M153.822,37.554c-0.088-0.148-0.286-0.34-0.313-0.553c-0.04-0.321,0.196-0.53,0.521-0.519        c0.322,0.01,0.512,0.216,0.495,0.554C154.508,37.38,154.282,37.514,153.822,37.554z"/>
						<path fill="#FFFFFF" d="M155.572,36.478c0.041-0.29,0.218-0.472,0.552-0.461c0.322,0.011,0.49,0.22,0.485,0.513        c-0.005,0.315-0.201,0.54-0.527,0.53C155.763,37.05,155.578,36.849,155.572,36.478z"/>
						<path fill="#FFFFFF" d="M147.357,35.789c0.028-0.479,0.191-0.676,0.529-0.676c0.34,0,0.52,0.213,0.521,0.528        c0.002,0.338-0.262,0.536-0.547,0.504C147.658,36.122,147.481,35.883,147.357,35.789z"/>
						<path fill="#FFFFFF" d="M162.057,31.236c-0.457-0.068-0.67-0.233-0.667-0.564c0.002-0.307,0.203-0.487,0.5-0.522        c0.276-0.033,0.618,0.302,0.538,0.564C162.363,30.926,162.162,31.097,162.057,31.236z"/>
						<path fill="#FFFFFF" d="M162.039,23.857c0.105,0.136,0.338,0.308,0.377,0.515c0.058,0.324-0.2,0.529-0.512,0.55        c-0.305,0.021-0.503-0.175-0.519-0.488C161.368,24.093,161.57,23.924,162.039,23.857z"/>
						<path fill="#FFFFFF" d="M144.838,23.026c-0.295-0.036-0.491-0.205-0.49-0.539c0.002-0.312,0.186-0.505,0.49-0.516        c0.332-0.01,0.539,0.198,0.549,0.516S145.207,23.003,144.838,23.026z"/>
						<path fill="#FFFFFF" d="M147.855,18.969c0.317,0.031,0.508,0.202,0.513,0.534c0.004,0.311-0.168,0.521-0.476,0.526        c-0.311,0.004-0.546-0.173-0.555-0.507C147.328,19.2,147.511,19.006,147.855,18.969z"/>
						<path fill="#FFFFFF" d="M143.998,30.169c0.358,0.069,0.495,0.291,0.452,0.611c-0.048,0.339-0.285,0.471-0.602,0.434        c-0.324-0.037-0.444-0.271-0.413-0.569C143.471,30.31,143.705,30.181,143.998,30.169z"/>
						<path fill="#FFFFFF" d="M160.474,32.579c0.033-0.312,0.193-0.51,0.536-0.5c0.319,0.008,0.495,0.21,0.505,0.506        c0.011,0.324-0.192,0.545-0.516,0.545C160.684,33.13,160.494,32.928,160.474,32.579z"/>
						<path fill="#FFFFFF" d="M146.017,20.311c0.494,0.014,0.685,0.194,0.689,0.527c0.007,0.318-0.199,0.515-0.495,0.521        c-0.316,0.009-0.575-0.186-0.522-0.521C145.724,20.626,145.931,20.441,146.017,20.311z"/>
						<path fill="#FFFFFF" d="M152.403,37.045c-0.04,0.308-0.188,0.516-0.545,0.494c-0.351-0.02-0.496-0.235-0.486-0.563        c0.009-0.325,0.227-0.496,0.518-0.494C152.214,36.485,152.396,36.693,152.403,37.045z"/>
						<path fill="#FFFFFF" d="M161.515,22.348c-0.066,0.465-0.23,0.666-0.575,0.649c-0.323-0.017-0.484-0.213-0.477-0.525        c0.01-0.34,0.235-0.555,0.541-0.502C161.21,22.004,161.383,22.241,161.515,22.348z"/>
						<path fill="#FFFFFF" d="M159.126,20.83c0.008-0.325,0.177-0.501,0.489-0.513c0.336-0.016,0.526,0.168,0.539,0.503        c0.014,0.324-0.189,0.5-0.484,0.515C159.345,21.351,159.153,21.159,159.126,20.83z"/>
						<path fill="#FFFFFF" d="M157.928,36.108c-0.298-0.048-0.482-0.25-0.441-0.572c0.042-0.331,0.288-0.474,0.612-0.431        c0.322,0.044,0.462,0.265,0.421,0.568C158.48,35.976,158.287,36.141,157.928,36.108z"/>
						<path fill="#FFFFFF" d="M149.615,19.117c-0.092-0.134-0.31-0.313-0.345-0.521c-0.054-0.323,0.175-0.514,0.512-0.52        c0.328-0.007,0.508,0.192,0.517,0.489C150.308,18.896,150.087,19.066,149.615,19.117z"/>
						<path fill="#FFFFFF" d="M144.467,24.593c-0.134,0.092-0.319,0.316-0.524,0.34c-0.313,0.034-0.527-0.201-0.514-0.534        c0.01-0.304,0.193-0.517,0.508-0.504C144.259,23.907,144.446,24.106,144.467,24.593z"/>
					</g>
					<g>
						<path fill="#FFFFFF" d="M150.908,24.833c-1.44,2.498-2.86,4.956-4.292,7.438c-0.585-0.763-1.007-1.581-1.28-2.472        c-0.488-1.587-0.486-3.176,0.014-4.761c0.043-0.138,0.08-0.229,0.263-0.229c1.712,0.008,3.426,0.004,5.14,0.006        C150.786,24.815,150.819,24.822,150.908,24.833z"/>
						<path fill="#FFFFFF" d="M156.186,27.024c-1.444-2.503-2.861-4.96-4.293-7.439c0.712-0.136,1.396-0.102,2.069-0.01        c1.889,0.262,3.483,1.097,4.792,2.484c0.137,0.146,0.161,0.246,0.055,0.43C157.935,23.982,157.078,25.479,156.186,27.024z"/>
						<path fill="#FFFFFF" d="M149.648,27.872c1.44,2.495,2.859,4.945,4.279,7.4c-2.082,0.404-5.073-0.353-7.025-2.648        C147.805,31.06,148.715,29.485,149.648,27.872z"/>
						<path fill="#FFFFFF" d="M151.664,30.497c2.874,0,5.709,0,8.641,0c-0.341,0.57-0.614,1.121-0.973,1.611        c-1.162,1.596-2.723,2.612-4.642,3.08c-0.208,0.05-0.327,0.018-0.442-0.188c-0.811-1.425-1.635-2.841-2.453-4.26        C151.753,30.672,151.718,30.601,151.664,30.497z"/>
						<path fill="#FFFFFF" d="M159.214,22.616c0.631,0.815,1.057,1.68,1.322,2.622c0.436,1.54,0.426,3.077-0.055,4.608        c-0.047,0.147-0.095,0.219-0.27,0.218c-1.713-0.008-3.427-0.004-5.141-0.005c-0.034,0-0.069-0.006-0.146-0.013        C156.358,27.567,157.775,25.111,159.214,22.616z"/>
						<path fill="#FFFFFF" d="M145.604,24.372c0.245-0.641,0.577-1.206,0.979-1.729c1.182-1.535,2.724-2.512,4.606-2.954        c0.151-0.036,0.257-0.048,0.352,0.12c0.84,1.469,1.689,2.935,2.536,4.4c0.025,0.045,0.045,0.092,0.076,0.162        C151.294,24.372,148.462,24.372,145.604,24.372z"/>
					</g>
				</g>
				<g>
					<g>
						<path fill="#FFFFFF" d="M190.454,20.247c0.132,0.193,0.327,0.371,0.378,0.583c0.07,0.291-0.237,0.576-0.54,0.559        c-0.314-0.019-0.476-0.224-0.509-0.513C189.75,20.59,190.044,20.318,190.454,20.247z"/>
						<path fill="#FFFFFF" d="M205.11,32.09c0.33,0.032,0.536,0.189,0.536,0.531c0,0.345-0.216,0.523-0.532,0.524        c-0.304,0-0.511-0.201-0.515-0.505C204.594,32.328,204.778,32.122,205.11,32.09z"/>
						<path fill="#FFFFFF" d="M187.909,24.982c-0.094-0.13-0.32-0.306-0.351-0.514c-0.049-0.31,0.189-0.537,0.505-0.543        c0.312-0.005,0.545,0.181,0.533,0.52C188.584,24.764,188.39,24.951,187.909,24.982z"/>
						<path fill="#FFFFFF" d="M205.991,26.517c0.024-0.347,0.215-0.543,0.532-0.55c0.302-0.005,0.508,0.197,0.518,0.493        c0.009,0.308-0.158,0.54-0.501,0.551C206.201,27.021,206.039,26.82,205.991,26.517z"/>
						<path fill="#FFFFFF" d="M198.13,37.547c-0.316-0.029-0.514-0.199-0.512-0.53c0.004-0.338,0.225-0.521,0.538-0.52        c0.297,0.003,0.499,0.205,0.504,0.508C198.663,37.325,198.476,37.519,198.13,37.547z"/>
						<path fill="#FFFFFF" d="M195.982,18.638c-0.309-0.027-0.506-0.198-0.504-0.53c0.003-0.335,0.222-0.521,0.536-0.519        c0.3,0.003,0.503,0.207,0.503,0.507C196.517,18.405,196.341,18.615,195.982,18.638z"/>
						<path fill="#FFFFFF" d="M191.958,18.984c0.344,0.017,0.55,0.196,0.558,0.519c0.008,0.325-0.215,0.572-0.519,0.515        c-0.202-0.037-0.461-0.284-0.512-0.484C191.411,19.23,191.642,19.024,191.958,18.984z"/>
						<path fill="#FFFFFF" d="M205.988,28.686c0.025-0.376,0.203-0.579,0.527-0.587c0.335-0.009,0.521,0.219,0.525,0.531        c0.005,0.301-0.194,0.504-0.496,0.515C206.225,29.153,206.035,28.964,205.988,28.686z"/>
						<path fill="#FFFFFF" d="M197.597,18.287c0.002-0.501,0.199-0.687,0.516-0.702c0.304-0.016,0.501,0.179,0.542,0.476        c0.04,0.283-0.275,0.628-0.547,0.558C197.895,18.563,197.717,18.368,197.597,18.287z"/>
						<path fill="#FFFFFF" d="M205.533,30.712c0.011-0.354,0.207-0.541,0.527-0.534c0.321,0.008,0.519,0.22,0.506,0.55        c-0.011,0.305-0.19,0.488-0.512,0.485C205.721,31.212,205.532,31.052,205.533,30.712z"/>
						<path fill="#FFFFFF" d="M190.346,33.782c0.347,0.045,0.585,0.248,0.509,0.554c-0.049,0.2-0.312,0.449-0.513,0.485        c-0.3,0.052-0.532-0.188-0.526-0.52C189.822,33.973,190.041,33.811,190.346,33.782z"/>
						<path fill="#FFFFFF" d="M196.55,37.04c-0.063,0.322-0.228,0.521-0.567,0.5c-0.313-0.021-0.49-0.223-0.488-0.518        c0.002-0.325,0.219-0.526,0.536-0.522C196.356,36.503,196.517,36.726,196.55,37.04z"/>
						<path fill="#FFFFFF" d="M187.064,28.465c0.148-0.089,0.34-0.287,0.553-0.313c0.322-0.039,0.532,0.196,0.521,0.521        c-0.012,0.322-0.216,0.513-0.555,0.495C187.238,29.151,187.104,28.925,187.064,28.465z"/>
						<path fill="#FFFFFF" d="M188.14,30.214c0.291,0.041,0.473,0.219,0.462,0.553c-0.01,0.322-0.22,0.489-0.513,0.484        c-0.315-0.005-0.54-0.202-0.53-0.527C187.568,30.405,187.77,30.22,188.14,30.214z"/>
						<path fill="#FFFFFF" d="M188.83,21.999c0.479,0.028,0.675,0.191,0.676,0.529c0,0.341-0.214,0.521-0.528,0.521        c-0.338,0.001-0.537-0.263-0.504-0.547C188.497,22.301,188.734,22.124,188.83,21.999z"/>
						<path fill="#FFFFFF" d="M193.382,36.7c0.067-0.457,0.232-0.67,0.564-0.668c0.307,0.002,0.488,0.204,0.522,0.5        c0.032,0.277-0.303,0.619-0.564,0.538C193.692,37.005,193.522,36.804,193.382,36.7z"/>
						<path fill="#FFFFFF" d="M200.76,36.682c-0.134,0.104-0.307,0.337-0.514,0.376c-0.324,0.059-0.53-0.201-0.55-0.51        c-0.021-0.307,0.175-0.506,0.488-0.521C200.526,36.01,200.695,36.212,200.76,36.682z"/>
						<path fill="#FFFFFF" d="M201.592,19.482c0.035-0.296,0.204-0.493,0.538-0.491c0.313,0.002,0.506,0.184,0.516,0.491        c0.011,0.33-0.197,0.537-0.516,0.548C201.814,20.04,201.615,19.849,201.592,19.482z"/>
						<path fill="#FFFFFF" d="M205.651,22.497c-0.031,0.317-0.203,0.508-0.535,0.512c-0.311,0.005-0.521-0.166-0.526-0.474        c-0.004-0.311,0.174-0.548,0.507-0.555C205.419,21.969,205.613,22.153,205.651,22.497z"/>
						<path fill="#FFFFFF" d="M194.45,18.64c-0.069,0.359-0.292,0.495-0.611,0.452c-0.339-0.048-0.472-0.285-0.435-0.602        c0.038-0.323,0.272-0.444,0.571-0.413C194.308,18.113,194.439,18.348,194.45,18.64z"/>
						<path fill="#FFFFFF" d="M192.041,35.117c0.311,0.032,0.509,0.192,0.499,0.536c-0.008,0.319-0.211,0.494-0.506,0.504        c-0.325,0.011-0.546-0.191-0.546-0.516C191.488,35.325,191.691,35.136,192.041,35.117z"/>
						<path fill="#FFFFFF" d="M204.308,20.66c-0.014,0.493-0.194,0.685-0.528,0.69c-0.317,0.005-0.514-0.2-0.52-0.497        c-0.008-0.315,0.187-0.574,0.521-0.521C203.993,20.366,204.178,20.574,204.308,20.66z"/>
						<path fill="#FFFFFF" d="M187.574,27.046c-0.308-0.041-0.515-0.189-0.494-0.546c0.02-0.35,0.235-0.496,0.562-0.485        c0.326,0.008,0.498,0.226,0.495,0.517C188.134,26.856,187.925,27.038,187.574,27.046z"/>
						<path fill="#FFFFFF" d="M202.271,36.159c-0.465-0.068-0.666-0.231-0.649-0.576c0.017-0.322,0.213-0.484,0.524-0.478        c0.34,0.009,0.554,0.235,0.503,0.542C202.614,35.853,202.376,36.025,202.271,36.159z"/>
						<path fill="#FFFFFF" d="M203.79,33.768c0.324,0.011,0.5,0.179,0.511,0.489c0.016,0.337-0.167,0.527-0.502,0.541        c-0.323,0.014-0.499-0.19-0.515-0.485C203.269,33.987,203.46,33.796,203.79,33.768z"/>
						<path fill="#FFFFFF" d="M188.51,32.571c0.048-0.299,0.25-0.483,0.572-0.441c0.332,0.042,0.474,0.287,0.43,0.611        c-0.042,0.323-0.264,0.462-0.567,0.421C188.642,33.121,188.478,32.929,188.51,32.571z"/>
						<path fill="#FFFFFF" d="M205.5,24.259c0.135-0.094,0.313-0.311,0.522-0.346c0.322-0.055,0.513,0.174,0.519,0.512        c0.007,0.327-0.193,0.508-0.488,0.516C205.724,24.949,205.552,24.729,205.5,24.259z"/>
						<path fill="#FFFFFF" d="M200.027,19.11c-0.094-0.135-0.318-0.32-0.342-0.525c-0.033-0.312,0.201-0.527,0.535-0.515        c0.304,0.011,0.516,0.193,0.504,0.509C200.711,18.902,200.512,19.087,200.027,19.11z"/>
					</g>
					<g>
						<path fill="#FFFFFF" d="M199.786,25.551c-2.498-1.441-4.956-2.86-7.438-4.292c0.762-0.586,1.58-1.007,2.472-1.281        c1.588-0.488,3.176-0.486,4.761,0.014c0.138,0.043,0.23,0.082,0.229,0.262c-0.007,1.714-0.004,3.428-0.006,5.141        C199.803,25.429,199.796,25.462,199.786,25.551z"/>
						<path fill="#FFFFFF" d="M197.595,30.828c2.501-1.443,4.958-2.86,7.439-4.293c0.135,0.713,0.101,1.395,0.008,2.07        c-0.261,1.888-1.096,3.482-2.484,4.791c-0.146,0.138-0.245,0.161-0.43,0.054C200.636,32.578,199.139,31.72,197.595,30.828z"/>
						<path fill="#FFFFFF" d="M196.746,24.29c-2.494,1.441-4.943,2.859-7.4,4.279c-0.404-2.082,0.353-5.074,2.648-7.025        C193.558,22.448,195.132,23.358,196.746,24.29z"/>
						<path fill="#FFFFFF" d="M194.122,26.307c0,2.874,0,5.709,0,8.64c-0.57-0.34-1.121-0.613-1.611-0.973        c-1.597-1.162-2.612-2.723-3.08-4.641c-0.05-0.209-0.018-0.328,0.188-0.443c1.424-0.81,2.841-1.634,4.26-2.453        C193.948,26.396,194.018,26.362,194.122,26.307z"/>
						<path fill="#FFFFFF" d="M202.002,33.856c-0.815,0.631-1.68,1.058-2.622,1.323c-1.54,0.436-3.078,0.425-4.609-0.056        c-0.146-0.046-0.219-0.095-0.217-0.27c0.008-1.713,0.004-3.427,0.005-5.141c0-0.033,0.007-0.068,0.013-0.146        C197.051,31,199.507,32.417,202.002,33.856z"/>
						<path fill="#FFFFFF" d="M200.247,20.247c0.642,0.244,1.206,0.576,1.729,0.979c1.534,1.181,2.511,2.725,2.954,4.607        c0.035,0.15,0.048,0.256-0.12,0.352c-1.47,0.84-2.936,1.689-4.401,2.535c-0.044,0.026-0.091,0.046-0.161,0.077        C200.247,25.938,200.247,23.106,200.247,20.247z"/>
					</g>
				</g>
			</g>
			<path fill="#FFFFFF" d="M163.514,47.803c-0.002,0-0.003,0-0.006,0c-0.058,0-0.117-0.011-0.175-0.011     c-0.059,0-0.117,0.011-0.174,0.011h-0.003c-0.049,0-0.099,0-0.147,0c0,0-0.08,0-0.178,0c-0.158,0-0.362,0-0.365,0     c-0.001,0-0.004,0-0.006,0c-0.004,0-0.007,0-0.007,0c-1.432,0-2.863,0-4.294,0c-0.003,0-0.004,0-0.008,0     c-0.016,0-0.031,0-0.048,0h-0.003c-1.752,0-3.579,0.077-5.333,0.053c-6.946-0.098-12.992-3.154-16.745-7.908     c-0.092-0.12-0.187-0.233-0.275-0.356c-0.051-0.067-0.1-0.137-0.149-0.206c-1.237-1.765-2.194-3.757-2.815-5.942     c-2.854-10.066,2.311-20.771,11.925-24.831c9.057-3.824,21.108,1.068,26.834,9.155l2.677-4.27c0,0-9.375-11.419-23.832-10.973     c-7.846,0.243-23.206,0.113-23.206,0.113s-0.517,21.553,0.304,28.351c1.156,9.616,7.347,16.918,15.586,20.208     c1.326,0.545,2.716,0.986,4.164,1.313c0.563,0.129,1.14,0.214,1.716,0.282c1.381,0.212,2.791,0.326,4.226,0.325l9.158,0.01     c0.045,0.002,0.089,0,0.133,0c0.046,0,0.092-0.008,0.136-0.011c0.013-0.001,0.022-0.003,0.032-0.003     c2.165,0.035,3.004-1.391,3.004-2.656C165.638,49.244,164.701,47.803,163.514,47.803z"/>
			<path fill="#FFFFFF" d="M166.47,20.698l1.899-3.043c0,0-6.666-8.445-16.901-7.788c-10.013,0.644-16.233,8.957-16.368,17.673     l-0.01-0.004c0.003,0.038,0.008,0.076,0.01,0.114c-0.008,0.797,0.032,1.598,0.128,2.396c0.639,5.313,3.442,9.628,7.413,12.379     c1.759,1.406,3.786,2.449,6.045,2.957c1.214,0.273,2.49,0.403,3.739,0.407l7.449,0.073c0.006,0,0.012,0,0.018,0     c0.9,0,1.844-0.746,1.844-1.649c0-0.858-0.664-1.585-1.506-1.585c0,0-0.004,0-0.002,0c-0.183,0-0.434,0-0.481,0     c-0.923,0-1.843,0-2.765,0c-0.002,0-0.003,0-0.006,0c-1.168,0-2.336-0.092-3.506-0.107c-7.027-0.086-12.705-4.298-14.484-10.57     c-2.023-7.139,1.64-14.813,8.455-17.691C153.864,11.547,162.413,14.963,166.47,20.698z"/>
			<path fill="#FFFFFF" d="M189.804,45.862c0.006,0,0.012,0,0.016,0l7.451-0.073c1.249-0.004,2.526-0.134,3.739-0.407     c2.26-0.508,4.786-1.551,6.546-2.957c3.121-2.164,5.517-5.3,6.711-9.124c0.01-0.032,0.02-0.064,0.03-0.097     c0.041-0.138,0.083-0.275,0.121-0.414c0.852-2.935,0.958-6.131,0.141-9.328c-3.061-11.965-17.067-17.944-27.375-10.406     c-0.266,0.195-0.526,0.409-0.781,0.617c-0.074,0.061-0.145,0.129-0.217,0.189c-0.182,0.153-0.364,0.307-0.541,0.466     c-0.06,0.054-0.119,0.111-0.179,0.167c-0.189,0.17-0.377,0.342-0.563,0.519c-0.021,0.021-0.042,0.042-0.063,0.062     c-0.483,0.461-5.249,6.402-5.105,7.771c0.185,1.753,2.142,1.978,3.126,0.486c0.911-1.383,1.87-3.269,2.939-4.521     c3.88-4.543,8.742-6.815,14.71-5.298c6.126,1.559,9.886,5.695,11.05,11.905c0.235,1.261,0.289,2.505,0.193,3.716     c-0.176,1.024-0.426,2.405-0.542,2.816c-1.666,5.88-7.199,9.947-13.674,10.506c-0.15,0.006-0.297,0.017-0.446,0.019     c-1.244,0.017-2.485,0.063-3.729,0.063h-0.001c-1.118,0-2.235,0-3.354,0c-0.075,0-0.213,0-0.213,0v-0.051     c0,0-0.225,0.051-0.268,0.051c-0.001,0-0.001,0-0.001,0c-0.667,0-1.216,0.412-1.419,1.009c-0.09,0.204-0.145,0.429-0.145,0.666     C187.96,45.116,188.902,45.862,189.804,45.862z"/>
			<path fill="#FFFFFF" d="M222.435,2.642c0,0-19.536-0.206-24.275-0.257c-5.149-0.235-10.463,1.2-15.218,4.678     c-0.375,0.273-0.743,0.56-1.102,0.854c-0.104,0.085-0.204,0.176-0.307,0.262c-0.255,0.215-0.511,0.429-0.762,0.651     c-0.086,0.075-0.167,0.156-0.253,0.233c-0.266,0.241-0.532,0.483-0.795,0.731c-0.03,0.028-0.061,0.059-0.09,0.087     c-0.681,0.648-7.4,9.028-7.198,10.955c0.26,2.472,3.02,2.79,4.409,0.687c1.286-1.949,2.637-4.609,4.145-6.375     c5.47-6.407,12.328-9.611,20.742-7.471c8.641,2.197,13.941,8.031,15.582,16.788c0.365,1.943,0.438,3.846,0.252,5.671     l-0.006,0.004c-0.127,1.103-0.336,2.207-0.646,3.303c-0.146,0.515-0.313,1.018-0.496,1.51c-0.021,0.055-0.039,0.11-0.061,0.165     c-0.043,0.114-0.09,0.227-0.135,0.34c-2.961,7.125-10.197,12.156-19.041,12.281c-1.75,0.024-3.777,0.044-5.53,0.044h-0.002     c-1.575,0-3.151,0-4.727,0c-0.108,0-0.218,0-0.325,0c-0.002,0-0.004,0-0.004,0c-0.058,0-0.115-0.009-0.173-0.009     c-0.06,0-0.118,0.009-0.176,0.009c-0.002,0-0.004,0-0.006,0c-0.163,0-0.321,0.03-0.473,0.081     c-0.982,0.284-1.707,1.526-1.707,2.593c0,1.266,0.838,2.691,3.004,2.656c0.01,0,0.02,0.002,0.03,0.003     c0.045,0.003,0.09,0.011,0.135,0.011c0.047,0,0.091,0.002,0.134,0l9.159-0.01c1.435,0.001,2.845-0.113,4.224-0.325     c0.58-0.068,1.154-0.153,1.719-0.282c1.447-0.326,2.836-0.768,4.161-1.313c8.241-3.29,14.431-10.592,15.587-20.208     c0.012-0.104,0.031-0.615,0.051-1.204c0.027-0.362,0.049-0.726,0.061-1.09C222.862,20.362,222.435,2.642,222.435,2.642z"/>
		</g>
	</g>
</g>
</svg>